<mxfile host="app.diagrams.net" modified="2021-05-07T02:22:51.613Z" agent="5.0 (Windows NT 10.0; WOW64) AppleWebKit/537.36 (KHTML, like Gecko) Chrome/72.0.3626.109 Safari/537.36" etag="WJlJwDpS15s3esgBHJk9" version="14.4.5" type="github">
  <diagram id="KrRiOGYvfv1CmmSM3dQH" name="第 1 页">
    <mxGraphModel dx="1422" dy="1931" grid="1" gridSize="10" guides="1" tooltips="1" connect="1" arrows="1" fold="1" page="1" pageScale="1" pageWidth="827" pageHeight="1169" math="0" shadow="0">
      <root>
        <mxCell id="0" />
        <mxCell id="1" parent="0" />
        <mxCell id="ADJs_ngkMqGLBzfqsuiR-18" style="edgeStyle=orthogonalEdgeStyle;rounded=0;orthogonalLoop=1;jettySize=auto;html=1;" edge="1" parent="1" source="ADJs_ngkMqGLBzfqsuiR-2" target="ADJs_ngkMqGLBzfqsuiR-16">
          <mxGeometry relative="1" as="geometry" />
        </mxCell>
        <mxCell id="ADJs_ngkMqGLBzfqsuiR-2" value="" style="pointerEvents=1;shadow=0;dashed=0;html=1;strokeColor=none;fillColor=#434445;aspect=fixed;labelPosition=center;verticalLabelPosition=bottom;verticalAlign=top;align=center;outlineConnect=0;shape=mxgraph.vvd.vcenter_server;" vertex="1" parent="1">
          <mxGeometry x="286.8" y="295" width="163.2" height="170" as="geometry" />
        </mxCell>
        <mxCell id="ADJs_ngkMqGLBzfqsuiR-3" value="" style="pointerEvents=1;shadow=0;dashed=0;html=1;strokeColor=none;fillColor=#434445;aspect=fixed;labelPosition=center;verticalLabelPosition=bottom;verticalAlign=top;align=center;outlineConnect=0;shape=mxgraph.vvd.virtual_machine;" vertex="1" parent="1">
          <mxGeometry x="286.8" y="480" width="50" height="50" as="geometry" />
        </mxCell>
        <mxCell id="ADJs_ngkMqGLBzfqsuiR-4" value="" style="pointerEvents=1;shadow=0;dashed=0;html=1;strokeColor=none;fillColor=#434445;aspect=fixed;labelPosition=center;verticalLabelPosition=bottom;verticalAlign=top;align=center;outlineConnect=0;shape=mxgraph.vvd.virtual_machine;" vertex="1" parent="1">
          <mxGeometry x="344.8" y="480" width="50" height="50" as="geometry" />
        </mxCell>
        <mxCell id="ADJs_ngkMqGLBzfqsuiR-5" value="" style="pointerEvents=1;shadow=0;dashed=0;html=1;strokeColor=none;fillColor=#434445;aspect=fixed;labelPosition=center;verticalLabelPosition=bottom;verticalAlign=top;align=center;outlineConnect=0;shape=mxgraph.vvd.virtual_machine;" vertex="1" parent="1">
          <mxGeometry x="400.8" y="480" width="50" height="50" as="geometry" />
        </mxCell>
        <mxCell id="ADJs_ngkMqGLBzfqsuiR-21" style="edgeStyle=orthogonalEdgeStyle;rounded=0;orthogonalLoop=1;jettySize=auto;html=1;" edge="1" parent="1" source="ADJs_ngkMqGLBzfqsuiR-7" target="ADJs_ngkMqGLBzfqsuiR-16">
          <mxGeometry relative="1" as="geometry" />
        </mxCell>
        <mxCell id="ADJs_ngkMqGLBzfqsuiR-7" value="" style="pointerEvents=1;shadow=0;dashed=0;html=1;strokeColor=none;fillColor=#434445;aspect=fixed;labelPosition=center;verticalLabelPosition=bottom;verticalAlign=top;align=center;outlineConnect=0;shape=mxgraph.vvd.vcenter_server;" vertex="1" parent="1">
          <mxGeometry x="590" y="295" width="160" height="166.66" as="geometry" />
        </mxCell>
        <mxCell id="ADJs_ngkMqGLBzfqsuiR-8" value="" style="pointerEvents=1;shadow=0;dashed=0;html=1;strokeColor=none;fillColor=#434445;aspect=fixed;labelPosition=center;verticalLabelPosition=bottom;verticalAlign=top;align=center;outlineConnect=0;shape=mxgraph.vvd.virtual_machine;" vertex="1" parent="1">
          <mxGeometry x="586" y="480" width="50" height="50" as="geometry" />
        </mxCell>
        <mxCell id="ADJs_ngkMqGLBzfqsuiR-9" value="" style="pointerEvents=1;shadow=0;dashed=0;html=1;strokeColor=none;fillColor=#434445;aspect=fixed;labelPosition=center;verticalLabelPosition=bottom;verticalAlign=top;align=center;outlineConnect=0;shape=mxgraph.vvd.virtual_machine;" vertex="1" parent="1">
          <mxGeometry x="644" y="480" width="50" height="50" as="geometry" />
        </mxCell>
        <mxCell id="ADJs_ngkMqGLBzfqsuiR-10" value="" style="pointerEvents=1;shadow=0;dashed=0;html=1;strokeColor=none;fillColor=#434445;aspect=fixed;labelPosition=center;verticalLabelPosition=bottom;verticalAlign=top;align=center;outlineConnect=0;shape=mxgraph.vvd.virtual_machine;" vertex="1" parent="1">
          <mxGeometry x="700" y="480" width="50" height="50" as="geometry" />
        </mxCell>
        <mxCell id="ADJs_ngkMqGLBzfqsuiR-11" value="数据存储" style="pointerEvents=1;shadow=0;dashed=0;html=1;strokeColor=none;fillColor=#434445;aspect=fixed;labelPosition=center;verticalLabelPosition=bottom;verticalAlign=top;align=center;outlineConnect=0;shape=mxgraph.vvd.storage;" vertex="1" parent="1">
          <mxGeometry x="320" y="680" width="37.5" height="50" as="geometry" />
        </mxCell>
        <mxCell id="ADJs_ngkMqGLBzfqsuiR-13" value="Oracle RAC数据库一体机" style="pointerEvents=1;shadow=0;dashed=0;html=1;strokeColor=none;fillColor=#434445;aspect=fixed;labelPosition=center;verticalLabelPosition=bottom;verticalAlign=top;align=center;outlineConnect=0;shape=mxgraph.vvd.datacenter;" vertex="1" parent="1">
          <mxGeometry x="286.8" y="560" width="118.92" height="88" as="geometry" />
        </mxCell>
        <mxCell id="ADJs_ngkMqGLBzfqsuiR-14" value="持久化磁带存储" style="pointerEvents=1;shadow=0;dashed=0;html=1;strokeColor=none;fillColor=#434445;aspect=fixed;labelPosition=center;verticalLabelPosition=bottom;verticalAlign=top;align=center;outlineConnect=0;shape=mxgraph.vvd.business_continuity_data_protection;" vertex="1" parent="1">
          <mxGeometry x="526" y="580" width="110" height="94.6" as="geometry" />
        </mxCell>
        <mxCell id="ADJs_ngkMqGLBzfqsuiR-15" value="RedWare负载均衡" style="pointerEvents=1;shadow=0;dashed=0;html=1;strokeColor=none;fillColor=#434445;aspect=fixed;labelPosition=center;verticalLabelPosition=bottom;verticalAlign=top;align=center;outlineConnect=0;shape=mxgraph.vvd.physical_network_adapter;" vertex="1" parent="1">
          <mxGeometry x="450" y="159" width="126" height="73.08" as="geometry" />
        </mxCell>
        <mxCell id="ADJs_ngkMqGLBzfqsuiR-17" value="" style="edgeStyle=orthogonalEdgeStyle;rounded=0;orthogonalLoop=1;jettySize=auto;html=1;" edge="1" parent="1" source="ADJs_ngkMqGLBzfqsuiR-16" target="ADJs_ngkMqGLBzfqsuiR-15">
          <mxGeometry relative="1" as="geometry" />
        </mxCell>
        <mxCell id="ADJs_ngkMqGLBzfqsuiR-16" value="" style="pointerEvents=1;shadow=0;dashed=0;html=1;strokeColor=none;fillColor=#434445;aspect=fixed;labelPosition=center;verticalLabelPosition=bottom;verticalAlign=top;align=center;outlineConnect=0;shape=mxgraph.vvd.edge_gateway;" vertex="1" parent="1">
          <mxGeometry x="488" y="270" width="50" height="42.5" as="geometry" />
        </mxCell>
        <mxCell id="ADJs_ngkMqGLBzfqsuiR-22" value="&lt;span style=&quot;color: rgb(50 , 50 , 50) ; font-size: 18px ; font-weight: 700 ; background-color: rgba(255 , 255 , 255 , 0.01)&quot;&gt;Development&lt;/span&gt;&lt;div style=&quot;resize: none ; outline: 0px ; font-size: 18px ; color: rgb(50 , 50 , 50) ; font-weight: 700&quot;&gt;(Software Engineering)&lt;/div&gt;&lt;div style=&quot;resize: none ; outline: 0px ; font-size: 18px ; color: rgb(50 , 50 , 50) ; font-weight: 700&quot;&gt;&lt;br&gt;&lt;/div&gt;&lt;div style=&quot;resize: none ; outline: 0px ; font-size: 18px ; color: rgb(50 , 50 , 50) ; font-weight: 700&quot;&gt;&lt;br&gt;&lt;/div&gt;&lt;div style=&quot;resize: none ; outline: 0px ; font-size: 18px ; color: rgb(50 , 50 , 50) ; font-weight: 700&quot;&gt;&lt;br&gt;&lt;/div&gt;&lt;div style=&quot;resize: none ; outline: 0px ; font-size: 18px ; color: rgb(50 , 50 , 50) ; font-weight: 700&quot;&gt;&lt;br&gt;&lt;/div&gt;&lt;div style=&quot;resize: none ; outline: 0px ; font-size: 18px ; color: rgb(50 , 50 , 50) ; font-weight: 700&quot;&gt;&lt;br&gt;&lt;/div&gt;&lt;div style=&quot;resize: none ; outline: 0px ; font-size: 18px ; color: rgb(50 , 50 , 50) ; font-weight: 700&quot;&gt;&lt;br&gt;&lt;/div&gt;" style="ellipse;whiteSpace=wrap;html=1;aspect=fixed;opacity=40;rotation=-45;fillColor=#fff2cc;strokeColor=#d6b656;" vertex="1" parent="1">
          <mxGeometry x="279" y="-460" width="270" height="270" as="geometry" />
        </mxCell>
        <mxCell id="ADJs_ngkMqGLBzfqsuiR-24" value="&lt;b&gt;&lt;font style=&quot;font-size: 20px&quot;&gt;DevOps&lt;br&gt;&lt;br&gt;&lt;br&gt;&lt;br&gt;&lt;br&gt;&lt;/font&gt;&lt;/b&gt;&lt;span style=&quot;color: rgb(50 , 50 , 50) ; font-size: 18px ; font-weight: 700 ; background-color: rgba(255 , 255 , 255 , 0.01)&quot;&gt;Technology Operations&lt;/span&gt;&lt;b&gt;&lt;font style=&quot;font-size: 20px&quot;&gt;&lt;br&gt;&lt;/font&gt;&lt;/b&gt;" style="ellipse;whiteSpace=wrap;html=1;aspect=fixed;opacity=40;fillColor=#d5e8d4;strokeColor=#82b366;" vertex="1" parent="1">
          <mxGeometry x="357.5" y="-360" width="270" height="270" as="geometry" />
        </mxCell>
        <mxCell id="ADJs_ngkMqGLBzfqsuiR-25" value="&lt;div style=&quot;resize: none ; outline: 0px ; font-size: 18px ; color: rgb(50 , 50 , 50) ; font-weight: 700&quot;&gt;Quality Assurance(QA)&lt;/div&gt;&lt;div&gt;&lt;br&gt;&lt;/div&gt;&lt;div&gt;&lt;br&gt;&lt;/div&gt;&lt;div&gt;&lt;br&gt;&lt;/div&gt;&lt;div&gt;&lt;br&gt;&lt;/div&gt;&lt;div&gt;&lt;br&gt;&lt;/div&gt;&lt;div&gt;&lt;br&gt;&lt;/div&gt;&lt;div&gt;&lt;br&gt;&lt;/div&gt;&lt;div&gt;&lt;br&gt;&lt;/div&gt;" style="ellipse;whiteSpace=wrap;html=1;aspect=fixed;opacity=40;rotation=45;fillColor=#f8cecc;strokeColor=#b85450;" vertex="1" parent="1">
          <mxGeometry x="440" y="-450" width="270" height="270" as="geometry" />
        </mxCell>
      </root>
    </mxGraphModel>
  </diagram>
</mxfile>
